<svg xmlns="http://www.w3.org/2000/svg" viewBox="0 0 400 300" width="406" height="306" class="illustration styles_illustrationTablet__1DWOa"><g id="_453_bunny_outline" data-name="#453_bunny_outline"><path d="M151.66,189.26c-.56-3.17-2.11-6.16-3.15-9.16a19.08,19.08,0,0,0-4.85-7.21c-4-3.88-9.44-6.07-14.67-7.47a9,9,0,0,1-4-1.79,6,6,0,0,1-1.63-4.64,18.06,18.06,0,0,1,1.16-4.93c-2.78,1.2-4.8,3.67-6.37,6.26a34.83,34.83,0,0,0-4.48,23.75c1.52,8.73,7,14.92,15,18.6,6.33,2.92,15.15,2.93,20.23-2.54C151.6,197.29,152.34,193.07,151.66,189.26Z" fill="#62ba51"></path><path d="M137.7,205.63a22.89,22.89,0,0,1-9.38-2c-8.71-4-14.1-10.7-15.6-19.33a35.89,35.89,0,0,1,4.61-24.45c2-3.38,4.28-5.56,6.83-6.65a1,1,0,0,1,1.07.18,1,1,0,0,1,.27,1.06,16.61,16.61,0,0,0-1.11,4.64,5,5,0,0,0,1.32,3.87,8.25,8.25,0,0,0,3.54,1.56c6.63,1.77,11.57,4.29,15.11,7.71a20.2,20.2,0,0,1,5.1,7.61c.33,1,.71,1.91,1.12,2.92a33.14,33.14,0,0,1,2.07,6.39h0a13.71,13.71,0,0,1-3,11.72A16,16,0,0,1,137.7,205.63Zm-14.89-49.35a17,17,0,0,0-3.77,4.56,33.91,33.91,0,0,0-4.35,23.06c1.38,8,6.39,14.13,14.47,17.86,5.89,2.72,14.33,2.8,19.07-2.31a11.7,11.7,0,0,0,2.45-10,31.15,31.15,0,0,0-2-6c-.39-1-.8-2-1.15-3a18.14,18.14,0,0,0-4.6-6.82c-3.29-3.18-7.95-5.54-14.24-7.22a9.84,9.84,0,0,1-4.39-2,6.92,6.92,0,0,1-2-5.42A13.06,13.06,0,0,1,122.81,156.28Z" fill="#093f68"></path><path d="M225.57,113.78a17.79,17.79,0,0,1-12.76,14.56c-11.64,3.38-47.68-19.52-70.2,21s14.17,66.45,13.14,69.83a37.93,37.93,0,0,0-2.26,11.64h68.14s3.38-10.69-13.89-13.32c0,0,30-8.46,41.94-31s11.56-49.93,11.56-49.93Z" fill="#62ba51"></path><path d="M221.63,231.83H153.49a1,1,0,0,1-.73-.31,1,1,0,0,1-.27-.74A40,40,0,0,1,154.75,219a25.68,25.68,0,0,0-3.13-4.09c-8.4-10-28.08-33.28-9.89-66,17-30.57,41.55-25.81,57.81-22.66,5.46,1.06,10.18,2,13,1.16a16.67,16.67,0,0,0,12.05-13.7,1,1,0,0,1,.56-.8,1,1,0,0,1,1,.06l35.67,22.82a1,1,0,0,1,.46.83c0,.27.24,27.92-11.68,50.41-9.64,18.2-30.48,27.26-38.93,30.29,4.7,1.24,8,3.32,9.79,6.21a9.77,9.77,0,0,1,1.16,7.63A1,1,0,0,1,221.63,231.83Zm-67.08-2h66.27a7.86,7.86,0,0,0-1.12-5.31c-1.93-3.06-6-5.09-12.11-6a1,1,0,0,1-.12-1.95c.29-.08,29.74-8.61,41.33-30.49,10.76-20.32,11.4-45,11.44-48.91l-34-21.73a18.77,18.77,0,0,1-13.18,13.88c-3.28.95-8,0-13.93-1.11-15.69-3-39.4-7.65-55.68,21.66C126,181.38,145,204,153.15,213.61c2.7,3.19,3.93,4.65,3.55,5.87A37,37,0,0,0,154.55,229.83Z" fill="#093f68"></path><path d="M249.68,92.59S224.59,92.11,205.12,82c-18.31-9.49-32.47-21.17-39-15.26s-6.47,22.25,3.38,29,74.62,10.42,74.62,10.42Z" fill="#62ba51"></path><path d="M244.17,107.19h-.06C241.45,107,179,103.43,169,96.6c-4.78-3.28-7.79-9-8.26-15.69-.42-6.1,1.4-11.8,4.77-14.88,5.33-4.87,14.77.65,26.72,7.62,4.24,2.48,8.61,5,13.36,7.49,19,9.86,43.87,10.44,44.12,10.45a1,1,0,0,1,.81.45,1,1,0,0,1,.1.92l-5.52,13.61A1,1,0,0,1,244.17,107.19Zm-73.54-41a5.38,5.38,0,0,0-3.78,1.33c-2.88,2.63-4.5,7.83-4.12,13.26.42,6.08,3.11,11.25,7.39,14.18,9,6.15,66.3,9.77,73.39,10.2l4.71-11.62c-5.65-.29-26.78-1.92-43.56-10.61-4.79-2.49-9.39-5.17-13.45-7.54C182.65,70.38,175.45,66.18,170.63,66.18Z" fill="#093f68"></path><path d="M247.32,146.22c18.23,3,43.32.33,47.91-12.29,5.63-15.49-1.43-25.11-23.39-37.22s-34.35-10.13-45.61-2c0,0-29.56-1.69-47.58-9.57S148,76.72,153,98.12c4.95,20.87,51,19.43,69,11.26,0,0-2.77,12.41,1.25,22.51" fill="#62ba51"></path><path d="M261.21,148.31a88.3,88.3,0,0,1-14-1.1,1,1,0,0,1,.32-2c19.32,3.17,42.71-.38,46.81-11.64,5.29-14.55-.5-23.63-22.93-36-23.64-13-35.38-8.68-44.54-2a1,1,0,0,1-.65.19c-.29,0-29.95-1.79-47.92-9.66-11.86-5.18-19.34-6.28-22.86-3.34-2.76,2.3-3.23,7.4-1.39,15.15,1.11,4.68,4.51,8.45,10.11,11.2,14.93,7.33,43.66,5.65,57.49-.62a1,1,0,0,1,1.05.14,1,1,0,0,1,.34,1c0,.12-2.64,12.24,1.21,21.92a1,1,0,0,1-.56,1.3,1,1,0,0,1-1.3-.56c-3.2-8-2.25-17.34-1.64-21.24-13.56,5.32-41.22,7.84-57.47-.13-6.16-3-9.92-7.25-11.18-12.54-2.05-8.67-1.38-14.28,2.06-17.14,4.22-3.52,12.14-2.56,24.94,3,16.6,7.26,43.5,9.25,46.89,9.47,16.3-11.62,31.92-5.86,46.39,2.12,19.95,11,30.25,20.81,23.84,38.43C292.43,144.56,276.34,148.31,261.21,148.31Z" fill="#093f68"></path><path d="M252.47,166.2l-2.34,53.86s8.64,1,10.33,4.34-1.25,6.43-1.25,6.43H234l-2.91-41.52" fill="#62ba51"></path><path d="M259.21,231.83H234a1,1,0,0,1-1-.93l-2.91-41.52a1,1,0,0,1,2-.14l2.84,40.59h23.83c.59-.76,1.9-2.8.81-5s-6.41-3.44-9.54-3.79a1,1,0,0,1-.89-1l2.34-53.86a1,1,0,1,1,2,.08l-2.3,52.95c2.45.37,8.6,1.6,10.18,4.77,2,4-1.28,7.42-1.42,7.56A1,1,0,0,1,259.21,231.83Z" fill="#093f68"></path><path d="M212,219.06h-.13l-12-1.55a1,1,0,0,1-.77-.55,1,1,0,0,1,0-.94c.19-.33,18.62-33.41,5.81-46s-36-7.4-36.24-7.35a1,1,0,0,1-.46-1.94,56.91,56.91,0,0,1,13.78-1.19c10.2.33,18.61,3.46,24.32,9,5.89,5.77,6.73,15.71,2.51,29.55a107.44,107.44,0,0,1-7.28,17.52l10.53,1.36a1,1,0,0,1-.13,2Z" fill="#093f68"></path><circle cx="262.14" cy="111.08" r="4.89" fill="#093f68"></circle><path d="M292.94,130.23a8.56,8.56,0,0,0-.07,2.9,3.46,3.46,0,0,0,1.54,2.37c1.52.88,3.53,0,4.66-1.36,1.81-2.13,2.65-7.37.21-9.48C295.82,121.66,293.32,127.65,292.94,130.23Z" fill="#093f68"></path><path d="M295.76,136.85a3.65,3.65,0,0,1-1.85-.48,4.42,4.42,0,0,1-2-3.05,9.43,9.43,0,0,1,.06-3.24h0c.28-1.88,1.71-6.07,4.34-7a3.5,3.5,0,0,1,3.65.86c2.9,2.52,2,8.39-.1,10.89A5.63,5.63,0,0,1,295.76,136.85Zm-1.83-6.47a7.83,7.83,0,0,0-.08,2.56,2.45,2.45,0,0,0,1.06,1.69c1,.59,2.53-.11,3.4-1.13,1.54-1.82,2.26-6.41.32-8.09-.81-.69-1.33-.61-1.65-.49-1.44.53-2.77,3.59-3.05,5.46Z" fill="#093f68"></path><path d="M136,198.38h-.06a17.38,17.38,0,0,1-16.4-17.21,1,1,0,1,1,2,0A15.38,15.38,0,0,0,136,196.38a1,1,0,0,1,0,2Z" fill="#093f68"></path><path d="M130.15,182.52a1,1,0,0,1-.43-.1A17.46,17.46,0,0,1,120,168.71a1,1,0,1,1,2-.21,15.43,15.43,0,0,0,8.6,12.11,1,1,0,0,1-.43,1.91Z" fill="#093f68"></path><path d="M206.54,109.23l-.91,0a1,1,0,0,1,.09-2c2.06.09,7.82-.16,9.74-2.29a2.24,2.24,0,0,0,.61-1.77c-.8-.47-4-1.22-8.07-2.16-7.55-1.76-20.2-4.71-38.61-10.5-7.93-2.5-10.1.67-10.12.7a1,1,0,0,1-1.71-1c.12-.19,2.85-4.58,12.43-1.57,18.34,5.77,30.94,8.71,38.47,10.46s9.37,2.18,9.57,3.59a4.36,4.36,0,0,1-1.09,3.64C214.52,109,208.83,109.23,206.54,109.23Z" fill="#093f68"></path></g></svg>