<svg xmlns="http://www.w3.org/2000/svg" xmlns:xlink="http://www.w3.org/1999/xlink" version="1.1" viewBox="0 0 400 300" width="406" height="306" >
<g transform="translate(128 128) scale(0.72 0.72)"  style="">
	<g transform="translate(-40 -120) scale(3 3)"   >
	<circle cx="45" cy="45" r="50" fill="#62ba51" stroke="#456e8d" stroke-width="1" />
	<path fill="#fff"  d="M 55.085 70.444 h -20.17 c -0.552 0 -1 -0.447 -1 -1 V 56.085 H 20.556 c -0.552 0 -1 -0.447 -1 -1 v -20.17 c 0 -0.552 0.448 -1 1 -1 h 13.359 V 20.556 c 0 -0.552 0.448 -1 1 -1 h 20.17 c 0.553 0 1 0.448 1 1 v 13.359 h 13.359 c 0.553 0 1 0.448 1 1 v 20.17 c 0 0.553 -0.447 1 -1 1 H 56.085 v 13.359 C 56.085 69.997 55.638 70.444 55.085 70.444 z M 35.915 68.444 h 18.17 V 55.085 c 0 -0.553 0.447 -1 1 -1 h 13.359 v -18.17 H 55.085 c -0.553 0 -1 -0.448 -1 -1 V 21.556 h -18.17 v 13.359 c 0 0.552 -0.448 1 -1 1 H 21.556 v 18.17 h 13.359 c 0.552 0 1 0.447 1 1 V 68.444 z" />
</g>
</g>
</svg>