<svg xmlns="http://www.w3.org/2000/svg" viewBox="0 0 400 300" width="406" height="306" class="illustration styles_illustrationTablet__1DWOa"><g id="_469_human_profile_outline" data-name="#469_human_profile_outline"><path d="M85.62,75.14H314.38a0,0,0,0,1,0,0V234.39a6.7,6.7,0,0,1-6.7,6.7H92.32a6.7,6.7,0,0,1-6.7-6.7V75.14A0,0,0,0,1,85.62,75.14Z" fill="#fff"></path><path d="M307.68,242.09H92.32a7.71,7.71,0,0,1-7.7-7.7V75.14a1,1,0,0,1,1-1H314.38a1,1,0,0,1,1,1V234.39A7.71,7.71,0,0,1,307.68,242.09ZM86.62,76.14V234.39a5.7,5.7,0,0,0,5.7,5.7H307.68a5.7,5.7,0,0,0,5.7-5.7V76.14Z" fill="#093f68"></path><path d="M92.32,58.91H307.68a6.7,6.7,0,0,1,6.7,6.7v9.53a0,0,0,0,1,0,0H85.62a0,0,0,0,1,0,0V65.61A6.7,6.7,0,0,1,92.32,58.91Z" fill="#62ba51"></path><path d="M314.38,76.14H85.62a1,1,0,0,1-1-1V65.61a7.71,7.71,0,0,1,7.7-7.7H307.68a7.71,7.71,0,0,1,7.7,7.7v9.53A1,1,0,0,1,314.38,76.14Zm-227.76-2H313.38V65.61a5.7,5.7,0,0,0-5.7-5.7H92.32a5.7,5.7,0,0,0-5.7,5.7Z" fill="#093f68"></path><path d="M304,101.49H96a1,1,0,0,1,0-2H304a1,1,0,0,1,0,2Z" fill="#dfeaef"></path><path d="M304,123H96a1,1,0,0,1,0-2H304a1,1,0,0,1,0,2Z" fill="#dfeaef"></path><path d="M304,189.05H96a1,1,0,1,1,0-2H304a1,1,0,0,1,0,2Z" fill="#dfeaef"></path><circle cx="160.17" cy="104.02" r="13.27" fill="#62ba51"></circle><path d="M160.17,118.29A14.27,14.27,0,1,1,174.44,104,14.28,14.28,0,0,1,160.17,118.29Zm0-26.54A12.27,12.27,0,1,0,172.44,104,12.28,12.28,0,0,0,160.17,91.75Z" fill="#093f68"></path><path d="M174.3,154.18v10.71a5.5,5.5,0,0,1-1.73-9Z" fill="#62ba51"></path><path d="M174.3,165.89a.91.91,0,0,1-.39-.08,6.34,6.34,0,0,1-2.1-1.42,6.51,6.51,0,0,1,.06-9.21l1.73-1.71a1,1,0,0,1,1.7.71v10.71a1,1,0,0,1-1,1Zm-1-9.32,0,0a4.46,4.46,0,0,0-1.34,3.18,4.52,4.52,0,0,0,1.3,3.2.23.23,0,0,1,.07.07Z" fill="#093f68"></path><path d="M195.83,139.9l-15.24-12a35.24,35.24,0,0,0-21.8-7.55h0a35.21,35.21,0,0,0-21.8,7.56l-15.22,12a5.5,5.5,0,0,0-.35,8.14l15.85,15.69a5.52,5.52,0,0,0,3.88,1.59,5.44,5.44,0,0,0,2.13-.43v53a5.42,5.42,0,0,0,10.8.58l4.72-43.79,4.72,43.79a5.41,5.41,0,0,0,10.78-.58v-53a5.53,5.53,0,0,0,6-1.16L196.17,148a5.51,5.51,0,0,0-.34-8.14Zm-62.35,4.58,9.8-8.16v17.85Zm40.82,9.7V136.31l9.81,8.17Z" fill="#62ba51"></path><path d="M168.9,224.26a6.4,6.4,0,0,1-6.38-5.72L158.8,184l-3.73,34.56a6.41,6.41,0,0,1-12.79-.69V166.22a6.53,6.53,0,0,1-5.71-1.78l-15.86-15.68a6.51,6.51,0,0,1,.42-9.63l15.24-12a36.23,36.23,0,0,1,44.84,0l15.23,12,0,0a6.51,6.51,0,0,1,.41,9.62L181,164.44a6.48,6.48,0,0,1-5.72,1.78v51.63a6.42,6.42,0,0,1-6.4,6.41Zm-10.1-50.62a1,1,0,0,1,1,.9l4.72,43.78a4.41,4.41,0,0,0,8.79-.47v-53a1,1,0,0,1,1.39-.92,4.56,4.56,0,0,0,4.92-.95l15.86-15.69a4.51,4.51,0,0,0-.27-6.65l-15.23-12a34.23,34.23,0,0,0-42.36,0l-15.23,12a4.51,4.51,0,0,0-.26,6.64L138,163a4.54,4.54,0,0,0,4.91.95,1,1,0,0,1,1.39.92v53a4.42,4.42,0,0,0,7.37,3.28,4.33,4.33,0,0,0,1.43-2.8l4.72-43.79A1,1,0,0,1,158.8,173.64Zm15.5-18.46a1,1,0,0,1-1-1V136.31a1,1,0,0,1,.58-.9,1,1,0,0,1,1.06.13l9.81,8.17a1,1,0,0,1,.06,1.48l-9.8,9.7A1,1,0,0,1,174.3,155.18Zm1-16.73v13.33l7.32-7.23Zm-32,16.72a1,1,0,0,1-.7-.29l-9.8-9.69a1,1,0,0,1-.3-.75,1.07,1.07,0,0,1,.36-.73l9.8-8.16a1,1,0,0,1,1.06-.14,1,1,0,0,1,.58.91v17.85a1,1,0,0,1-1,1ZM135,144.55l7.31,7.22V138.45Z" fill="#093f68"></path><path d="M143.28,165.89a1,1,0,0,1-.54-1.84c1.68-1.07,2.58-2.31,2.68-3.67.21-2.78-2.77-5.43-2.8-5.46a1,1,0,1,1,1.32-1.5c.15.13,3.75,3.32,3.48,7.1-.16,2-1.37,3.78-3.6,5.22A1.08,1.08,0,0,1,143.28,165.89Z" fill="#093f68"></path><path d="M174.19,165.89a1.08,1.08,0,0,1-.54-.15c-2.23-1.44-3.44-3.19-3.59-5.22-.28-3.78,3.32-7,3.48-7.1a1,1,0,1,1,1.31,1.5s-3,2.68-2.8,5.46c.11,1.36,1,2.6,2.68,3.67a1,1,0,0,1,.31,1.38A1,1,0,0,1,174.19,165.89Z" fill="#093f68"></path><path d="M249.22,121.15h0c-4.28,0-7.1.68-9.32,4.33-2.68,4.43-8.66,13.77-9.57,19.76s13.19,17.63,13.19,17.63l.63,56.27a6.41,6.41,0,0,0,6.41,6.34h0a6.42,6.42,0,0,0,6.37-5.7l5.91-52.73s3.62-20.68,2.07-27.57c-.78-3.48-3-8.1-4.92-11.84A12.16,12.16,0,0,0,249.22,121.15Z" fill="#62ba51"></path><path d="M250.56,226.48a7.44,7.44,0,0,1-7.41-7.32l-.63-55.81c-2.55-2.16-14.09-12.24-13.18-18.26.86-5.67,5.92-13.93,8.94-18.87l.77-1.25c2.44-4,5.58-4.82,10.16-4.82a13.13,13.13,0,0,1,11.67,7c2.65,5,4.34,9.11,5,12.08,1.58,7-1.91,27.11-2.06,28l-5.9,52.66A7.4,7.4,0,0,1,250.56,226.48Zm-1.35-104.33c-4.05,0-6.47.6-8.45,3.85l-.77,1.27c-2.75,4.49-7.87,12.85-8.67,18.12-.67,4.46,9,13.58,12.83,16.71a1,1,0,0,1,.37.76l.63,56.27a5.41,5.41,0,0,0,10.78.54l5.91-52.73c.05-.26,3.58-20.62,2.09-27.24a53.05,53.05,0,0,0-4.82-11.59A11.13,11.13,0,0,0,249.21,122.15Z" fill="#093f68"></path><circle cx="247.65" cy="104.02" r="13.27" fill="#62ba51"></circle><path d="M247.65,118.29A14.27,14.27,0,1,1,261.92,104,14.28,14.28,0,0,1,247.65,118.29Zm0-26.54A12.27,12.27,0,1,0,259.92,104,12.28,12.28,0,0,0,247.65,91.75Z" fill="#093f68"></path><path d="M249.6,130.69l-6.08,15.38s13.18,13,9.17,18.82c-2.23,3.24-9.17-2-9.17-2" fill="#62ba51"></path><path d="M250.5,167c-3.16,0-7.12-2.92-7.59-3.28a1,1,0,1,1,1.21-1.59c1.19.9,4.75,3.16,6.78,2.84a1.38,1.38,0,0,0,1-.59c2.9-4.21-5.56-14.09-9.06-17.55a1,1,0,0,1-.22-1.08l6.08-15.38a1,1,0,0,1,1.86.74l-5.84,14.77a61.22,61.22,0,0,1,5.74,6.89c4,5.66,5,9.95,3.09,12.74a3.41,3.41,0,0,1-2.31,1.43A4.17,4.17,0,0,1,250.5,167Z" fill="#093f68"></path><path d="M128.06,211.09H109.85a1,1,0,0,1,0-2h18.21a1,1,0,0,1,0,2Z" fill="#093f68"></path><path d="M230.29,211.09H205.54a1,1,0,0,1,0-2h24.75a1,1,0,0,1,0,2Z" fill="#093f68"></path><path d="M295.63,208.76H274.78a1,1,0,0,1,0-2h20.85a1,1,0,0,1,0,2Z" fill="#dfeaef"></path><path d="M295.63,216.85H274.78a1,1,0,0,1,0-2h20.85a1,1,0,0,1,0,2Z" fill="#dfeaef"></path><path d="M283.61,224.94h-8.83a1,1,0,0,1,0-2h8.83a1,1,0,0,1,0,2Z" fill="#dfeaef"></path></g></svg>